<svg width="24" height="24" viewBox="0 0 24 24" fill="none" xmlns="http://www.w3.org/2000/svg">
<g clip-path="url(#clip0_1415_12)">
<path d="M4 12V16H20V12H4Z" fill="black" stroke="black" stroke-width="2" stroke-linecap="round" stroke-linejoin="round"/>
<path d="M6 16V20H10V16M10 12V6L8 4L6 6V12" fill="black"/>
<path d="M6 16V20H10V16M10 12V6L8 4L6 6V12" stroke="black" stroke-width="2" stroke-linecap="round" stroke-linejoin="round"/>
<path d="M14 16V20H18V16M18 12V6L16 4L14 6V12" fill="black"/>
<path d="M14 16V20H18V16M18 12V6L16 4L14 6V12" stroke="black" stroke-width="2" stroke-linecap="round" stroke-linejoin="round"/>
</g>
<defs>
<clipPath id="clip0_1415_12">
<rect width="24" height="24" fill="white"/>
</clipPath>
</defs>
</svg>
