<?xml version="1.0" ?><!DOCTYPE svg  PUBLIC '-//W3C//DTD SVG 1.1//EN'  'http://www.w3.org/Graphics/SVG/1.1/DTD/svg11.dtd'><svg id="Lager_1" style="enable-background:new -265 388.9 64 64" version="1.1" viewBox="-265 388.9 64 64" xml:space="preserve" xmlns="http://www.w3.org/2000/svg"><path d="M-237.9 417.6h-16.5c-.9 0-1.6-.7-1.6-1.6v-16.5c0-.9.7-1.6 1.6-1.6h16.4c.9 0 1.6.7 1.6 1.6v16.4c.1 1-.6 1.7-1.5 1.7zM-211.6 417.6h-16.5c-.9 0-1.6-.7-1.6-1.6v-16.5c0-.9.7-1.6 1.6-1.6h16.4c.9 0 1.6.7 1.6 1.6v16.4c.1 1-.6 1.7-1.5 1.7zM-237.9 443.9h-16.5c-.9 0-1.6-.7-1.6-1.6v-16.5c0-.9.7-1.6 1.6-1.6h16.4c.9 0 1.6.7 1.6 1.6v16.4c.1 1-.6 1.7-1.5 1.7zM-211.6 443.9h-16.5c-.9 0-1.6-.7-1.6-1.6v-16.5c0-.9.7-1.6 1.6-1.6h16.4c.9 0 1.6.7 1.6 1.6v16.4c.1 1-.6 1.7-1.5 1.7z"/></svg>